<?xml version="1.0" encoding="utf-8"?>
<!-- Generator: Adobe Illustrator 22.0.1, SVG Export Plug-In . SVG Version: 6.00 Build 0)  -->
<svg version="1.1" id="Layer_1" xmlns="http://www.w3.org/2000/svg" xmlns:xlink="http://www.w3.org/1999/xlink" x="0px" y="0px"
	 viewBox="0 0 448.9 168.3" style="enable-background:new 0 0 448.9 168.3;" xml:space="preserve">
<style type="text/css">
	.st0{fill:#000000;}
</style>
<path class="st0" d="M53.8,131.8c-15.6,0-27.5-3.3-37.7-13.6l13-13c6.5,6.5,15.4,8.7,24.9,8.7c11.9,0,18.3-4.5,18.3-12.8
	c0-3.6-1-6.7-3.2-8.7c-2-1.9-4.3-2.9-9.1-3.6L47.5,87c-8.8-1.3-15.4-4.1-20-8.5c-4.9-4.9-7.4-11.6-7.4-20.3
	c0-18.4,13.6-31.3,35.9-31.3c14.2,0,24.5,3.5,33.3,12L76.7,51.5c-6.5-6.2-14.3-7.1-21.2-7.1c-10.7,0-15.9,5.9-15.9,13
	c0,2.6,0.9,5.4,3,7.4c2,1.9,5.4,3.5,9.6,4.1l12.2,1.7c9.4,1.3,15.4,3.9,19.7,8c5.5,5.2,8,12.8,8,21.9
	C92,120.4,75.3,131.8,53.8,131.8z"/>
<path class="st0" d="M155.2,124.9c-4.2,4.2-11,6.8-18.4,6.8c-7.7,0-13.3-2-18.3-7.5v34.3H99.7V55.4H118v7.1c5.2-5.8,10.9-8,18.8-8
	c7.4,0,14.2,2.6,18.4,6.8c7.5,7.5,7.7,20.4,7.7,31.7S162.8,117.4,155.2,124.9z M131.3,71.5c-11.3,0-12.8,9.3-12.8,21.6
	s1.4,21.7,12.8,21.7c11.3,0,12.8-9.4,12.8-21.7S142.6,71.5,131.3,71.5z"/>
<path class="st0" d="M214.8,130.9v-6.5c-5.1,5.1-9.9,7.2-18.5,7.2c-8.5,0-14.8-2.2-19.3-6.7c-4.1-4.2-6.2-10.3-6.2-17
	c0-12,8.3-21.9,25.8-21.9h17.8v-3.8c0-8.3-4.1-11.9-14.1-11.9c-7.2,0-10.6,1.7-14.5,6.2l-12-11.7c7.4-8.1,14.6-10.4,27.2-10.4
	c21.2,0,32.2,9,32.2,26.7v49.7H214.8z M214.3,99h-14.9c-6.8,0-10.6,3.2-10.6,8.5c0,5.2,3.5,8.7,10.9,8.7c5.2,0,8.5-0.4,11.9-3.6
	c2-1.9,2.8-4.9,2.8-9.6V99z"/>
<path class="st0" d="M288.6,76c-2.9-2.9-5.4-4.5-10-4.5c-5.8,0-12.2,4.3-12.2,13.9v45.5h-18.8V55.4H266v7.2c3.6-4.3,10.9-8.1,19-8.1
	c7.4,0,12.6,1.9,17.8,7.1L288.6,76z"/>
<path class="st0" d="M352.1,130.9l-18.5-31.4l-8,9v22.5h-18.8V27.7h18.8v58.5l25.1-30.9h22.7l-27,30.4l29,45.1H352.1z"/>
<path class="st0" d="M427.5,75.7l-15.2-9.6l0.6,18.1h-13.3l0.7-18.1l-15.4,9.6l-6.5-11.4l15.9-8.4l-15.9-8.4l6.5-11.6l15.4,9.7
	l-0.7-18.1h13.3l-0.6,18.1l15.2-9.7l6.7,11.6L418,55.8l16.1,8.4L427.5,75.7z"/>
</svg>
