<?xml version="1.0" encoding="utf-8"?>
<!-- Generator: Adobe Illustrator 22.1.0, SVG Export Plug-In . SVG Version: 6.00 Build 0)  -->
<svg version="1.1"
	 id="svg170623" inkscape:version="0.91 r13725" sodipodi:docname="Sponsorlogo_TESpms_4-farger.svg" xmlns:cc="http://creativecommons.org/ns#" xmlns:dc="http://purl.org/dc/elements/1.1/" xmlns:inkscape="http://www.inkscape.org/namespaces/inkscape" xmlns:rdf="http://www.w3.org/1999/02/22-rdf-syntax-ns#" xmlns:sodipodi="http://sodipodi.sourceforge.net/DTD/sodipodi-0.dtd" xmlns:svg="http://www.w3.org/2000/svg"
	 xmlns="http://www.w3.org/2000/svg" xmlns:xlink="http://www.w3.org/1999/xlink" x="0px" y="0px" viewBox="0 0 557.1 195.4"
	 style="enable-background:new 0 0 557.1 195.4;" xml:space="preserve">
<style type="text/css">
	.st0{fill:#5F523C;}
	.st1{fill:#A9BC0D;}
	.st2{fill:#97A50A;}
	.st3{fill:#9F9280;}
</style>
<sodipodi:namedview  bordercolor="#666666" borderopacity="1" gridtolerance="10" guidetolerance="10" id="namedview170625" inkscape:current-layer="g170631" inkscape:cx="526.18127" inkscape:cy="372.04688" inkscape:pageopacity="0" inkscape:pageshadow="2" inkscape:window-height="896" inkscape:window-maximized="0" inkscape:window-width="1458" inkscape:window-x="0" inkscape:window-y="27" inkscape:zoom="0.31716434" objecttolerance="10" pagecolor="#ffffff" showgrid="false">
	</sodipodi:namedview>
<g id="g170633" transform="translate(217.8799,177.6836)">
	<path id="path170635" inkscape:connector-curvature="0" class="st0" d="M-199.3,3.2V-46h-18.6v-8.7h48.2v8.7h-18.7V3.2H-199.3z"/>
</g>
<g id="g170639">
	<g id="g170645" transform="translate(239.5244,199.5176)">
		<path id="path170647" inkscape:connector-curvature="0" class="st0" d="M-193.9-45.9c0-2.4,0.3-4.8,0.9-7c0.6-2.2,1.8-4.1,3.7-5.7
			c1-0.9,2.1-1.6,3.3-2.1c1.2-0.5,2.4-0.9,3.6-1.2c1.2-0.2,2.3-0.4,3.4-0.5c1.1-0.1,2.1-0.1,2.9-0.1h6.5v7.4h-4.1
			c-1.3,0-2.7,0.2-4.2,0.5c-1.5,0.3-2.9,1.2-4.1,2.6c-0.9,1.1-1.5,2.4-1.8,3.9c-0.3,1.5-0.4,3.1-0.4,4.7v24.7h-9.7V-45.9z"/>
	</g>
	<g id="g170649" transform="translate(289.9438,195.1514)">
		<path id="path170651" inkscape:connector-curvature="0" class="st0" d="M-181.3-36.1c0,1.9-0.1,3.9-0.4,5.9
			c-0.2,2-1.1,3.8-2.5,5.4c-1.4,1.6-3.1,2.6-4.9,3c-1.8,0.4-3.7,0.6-5.5,0.6c-1.8,0-3.6-0.2-5.5-0.6c-0.6-0.1-1.2-0.4-1.8-0.6
			l19.9-21.3c0.2,0.7,0.4,1.3,0.5,2c0.2,1,0.2,2.1,0.2,3.1V-36.1z M-207.9-38.7c0-1,0.1-2,0.3-3.1c0.2-1.1,0.4-2.1,0.8-3.2
			c0.4-1.1,0.9-2,1.6-2.7c0.7-0.8,1.4-1.4,2.4-1.9c0.9-0.5,1.8-0.8,2.8-1.1c0.9-0.3,1.9-0.4,2.9-0.5c1-0.1,1.8-0.1,2.6-0.1
			c0.9,0,1.8,0,2.7,0.1c0.9,0.1,1.9,0.2,2.8,0.5c0.5,0.1,1.1,0.3,1.6,0.6l-19.7,21.3c-0.1-0.5-0.2-1-0.3-1.5c-0.2-2-0.4-4-0.4-5.8
			C-207.9-36.8-207.9-37.7-207.9-38.7 M-171.4-40.4c-0.1-1.5-0.4-3.1-0.7-4.7c-0.4-1.6-1-3.2-1.7-4.8c-0.7-1.6-1.7-2.9-3-4.1
			c-1.2-1.1-2.6-2-4.1-2.6c-1.5-0.6-3-1.1-4.6-1.4c-1.6-0.3-3.2-0.5-4.7-0.5c-1.5-0.1-3-0.1-4.3-0.1c-1.3,0-2.8,0-4.3,0.1
			c-1.5,0.1-3.1,0.2-4.7,0.5c-1.6,0.3-3.1,0.8-4.6,1.4c-1.5,0.6-2.8,1.5-4.1,2.6c-1.3,1.2-2.3,2.5-3,4.1c-0.7,1.6-1.3,3.2-1.7,4.8
			c-0.4,1.6-0.6,3.2-0.7,4.8c-0.1,1.6-0.2,3-0.2,4.2c0,1.1,0.1,2.4,0.2,3.9c0.1,1.5,0.3,3.1,0.7,4.7c0.4,1.6,0.9,3.2,1.7,4.8
			c0.7,1.5,1.8,2.9,3.1,4.1c1.2,1.1,2.6,2,4.1,2.6c1.5,0.6,3,1.1,4.6,1.4c1.6,0.3,3.2,0.5,4.7,0.6c1.5,0.1,3,0.1,4.3,0.1
			c1.3,0,2.7,0,4.2-0.1c1.5-0.1,3.1-0.3,4.8-0.6c1.6-0.3,3.2-0.8,4.7-1.4c1.5-0.6,2.9-1.5,4-2.6c1.6-1.5,2.9-3.7,4-6.6
			c1.1-2.8,1.6-6.6,1.6-11.3C-171.3-37.5-171.3-38.9-171.4-40.4"/>
	</g>
	<g id="g170653" transform="translate(302.3159,207.3896)">
		<path id="path170655" inkscape:connector-curvature="0" class="st0" d="M-178.2-63.6c0-0.7,0.1-1.4,0.2-2.3
			c0.1-0.9,0.5-1.7,1.2-2.4c0.9-1,2.1-1.6,3.4-1.8c1.3-0.1,2.4-0.2,3.3-0.2h15.5c2.3,0,4.5,0.2,6.5,0.6c2,0.4,3.9,1.4,5.7,3
			c1.2,1,2.2,2.5,3,4.2c0.9,1.8,1.3,4.2,1.3,7.2v28.9h-9.7v-26c0-1.4-0.1-2.8-0.3-4.2c-0.2-1.3-0.7-2.5-1.5-3.6
			c-0.7-0.9-1.6-1.6-2.7-2c-1.1-0.4-2.5-0.6-4.3-0.6h-9.8c-0.3,0-0.6,0-0.8,0c-0.3,0-0.5,0.2-0.8,0.5c-0.3,0.3-0.4,0.6-0.5,0.9
			c0,0.3,0,0.6,0,0.9v34.1h-9.7V-63.6z"/>
	</g>
	<g id="g170657" transform="translate(355.5859,206.7949)">
		<path id="path170659" inkscape:connector-curvature="0" class="st0" d="M-164.9-62.3c-1.3,0-2.7,0.2-4.2,0.7
			c-1.5,0.4-2.8,1.5-3.9,3.2c-0.5,0.8-0.9,1.9-1.3,3.5c-0.4,1.5-0.6,3.8-0.6,6.8c0,3.4,0.2,5.8,0.5,7.2c0.3,1.4,0.5,2.3,0.7,2.6
			c0.5,1.1,1.1,2,1.8,2.6c0.7,0.7,1.5,1.2,2.3,1.5c0.8,0.3,1.6,0.5,2.4,0.7c0.8,0.1,1.6,0.2,2.3,0.2h7.8c0.2,0,0.6,0,1.2-0.1
			c0.6-0.1,1-0.2,1.4-0.6c0.4-0.3,0.6-0.8,0.7-1.5c0.1-0.7,0.1-1.2,0.1-1.5v-25.2H-164.9z M-144.4-30.6c-0.2,1-0.6,1.9-1,2.5
			c-0.8,1-1.7,1.7-2.9,1.9c-1.1,0.2-2.2,0.3-3.2,0.3h-17.3c-1.1,0-2.3-0.1-3.6-0.3c-1.3-0.2-2.6-0.6-3.8-1.2
			c-1.3-0.6-2.5-1.5-3.6-2.6c-1.1-1.1-2.1-2.7-2.9-4.6c-0.6-1.3-1-3-1.5-5.2c-0.4-2.2-0.7-5.1-0.7-8.7c0-2.3,0.2-4.8,0.6-7.5
			c0.4-2.7,1.3-5.1,2.8-7.2c1-1.5,2.2-2.8,3.6-3.6c1.4-0.9,2.7-1.5,4.1-1.9c1.4-0.4,2.6-0.7,3.9-0.8c1.2-0.1,2.3-0.2,3.2-0.2h13
			v-11.9v-2.2h9.7l0,2.2l0,48C-144.1-32.7-144.2-31.7-144.4-30.6"/>
	</g>
	<g id="g170661" transform="translate(401.4458,198.5889)">
		<path id="path170663" inkscape:connector-curvature="0" class="st0" d="M-153.4-43.8c0.9,0,1.5-0.3,1.8-0.8
			c0.2-0.5,0.4-1.1,0.4-1.7c0-1.4-0.3-2.5-0.9-3.5s-1.2-1.7-1.9-2.3c-1.2-0.9-2.6-1.5-4-1.7c-1.5-0.2-2.9-0.3-4.3-0.3
			c-0.7,0-1.4,0-2.2,0c-0.8,0-1.6,0.1-2.4,0.3c-0.8,0.2-1.6,0.4-2.4,0.9c-0.8,0.4-1.5,1-2.2,1.7c-1,1.1-1.6,2.2-1.7,3.5
			c-0.1,1.2-0.2,2.5-0.3,3.9H-153.4z M-167-17.7c-1.1,0-2.3,0-3.5-0.1c-1.2-0.1-2.4-0.3-3.6-0.7c-1.2-0.4-2.3-1-3.4-1.7
			c-1.1-0.7-2.1-1.7-3-3c-1.4-2.1-2.3-4.5-2.6-7.3c-0.3-2.8-0.5-5.7-0.5-8.6c0-2,0-3.9,0.1-5.7c0.1-1.8,0.3-3.4,0.7-4.9
			c0.4-1.5,0.9-2.9,1.6-4.2c0.7-1.3,1.6-2.4,2.9-3.5c1.2-1,2.6-1.8,4-2.4c1.5-0.5,2.9-0.9,4.4-1.2c1.5-0.2,2.9-0.4,4.3-0.5
			c1.4-0.1,2.6-0.1,3.6-0.1c2.6,0,5.1,0.2,7.7,0.5c2.5,0.3,4.8,1.1,6.8,2.3c1.3,0.8,2.3,1.8,3.1,2.8c0.8,1,1.4,2.2,1.9,3.4
			c0.5,1.2,0.8,2.5,1,3.9c0.2,1.3,0.2,2.7,0.2,4.1c0,1.1-0.1,2.2-0.3,3.4c-0.2,1.2-0.8,2.2-1.7,3.2c-0.7,0.7-1.4,1.1-2.2,1.3
			c-0.8,0.2-1.6,0.3-2.5,0.3h-25.5c0,0.9,0.1,2,0.2,3.2c0.1,1.2,0.2,2.2,0.4,2.8c0.3,1.2,0.8,2.1,1.4,2.8c0.6,0.7,1.3,1.2,2.2,1.6
			c0.8,0.4,1.7,0.6,2.6,0.7c0.9,0.1,1.8,0.2,2.7,0.2h21.4v7.4C-142.7-17.7-167-17.7-167-17.7z"/>
	</g>
	<g id="g170665" transform="translate(416.3398,199.5176)">
		<path id="path170667" inkscape:connector-curvature="0" class="st0" d="M-149.7-45.9c0-2.4,0.3-4.8,0.9-7c0.6-2.2,1.8-4.1,3.7-5.7
			c1-0.9,2.1-1.6,3.3-2.1c1.2-0.5,2.4-0.9,3.6-1.2c1.2-0.2,2.3-0.4,3.4-0.5c1.1-0.1,2.1-0.1,2.9-0.1h6.5v7.4h-4.1
			c-1.3,0-2.7,0.2-4.2,0.5c-1.5,0.3-2.9,1.2-4.1,2.6c-0.9,1.1-1.5,2.4-1.8,3.9c-0.3,1.5-0.4,3.1-0.4,4.7v24.7h-9.7V-45.9z"/>
	</g>
	<g id="g170669" transform="translate(447.5078,177.6836)">
		<path id="path170671" inkscape:connector-curvature="0" class="st0" d="M-141.9,3.2c-1.3,0-2.5-0.1-3.6-0.2
			c-1.1-0.1-2.1-0.7-3.1-1.6c-1-0.9-1.6-2-1.8-3.3c-0.2-1.2-0.3-2.4-0.3-3.5v-41c0-1.2,0.2-2.3,0.5-3.3c0.4-1.1,0.8-2,1.4-2.7
			c0.9-1,2.1-1.7,3.3-1.9c1.3-0.2,2.5-0.3,3.6-0.3h35.1v8.7h-29.3c-0.5,0-1,0-1.5,0.1c-0.5,0.1-1,0.3-1.4,0.7
			c-0.4,0.4-0.7,0.9-0.8,1.4c-0.1,0.5-0.1,1-0.1,1.4v11.7h28.3v8.7h-28.3v13.6c0,1.1,0.3,1.8,0.8,2.2c0.3,0.3,0.8,0.5,1.4,0.6
			c0.6,0.1,1.4,0.1,2.3,0.1h28.9v8.7H-141.9z"/>
	</g>
	<g id="g170673" transform="translate(481.4453,207.3896)">
		<path id="path170675" inkscape:connector-curvature="0" class="st0" d="M-133.4-63.6c0-0.7,0.1-1.4,0.2-2.3
			c0.1-0.9,0.5-1.7,1.2-2.4c0.9-1,2.1-1.6,3.4-1.8c1.3-0.1,2.4-0.2,3.3-0.2h15.5c2.3,0,4.5,0.2,6.5,0.6c2,0.4,3.9,1.4,5.7,3
			c1.2,1,2.2,2.5,3,4.2c0.8,1.8,1.3,4.2,1.3,7.2v28.9h-9.7v-26c0-1.4-0.1-2.8-0.3-4.2c-0.2-1.3-0.7-2.5-1.5-3.6
			c-0.7-0.9-1.6-1.6-2.7-2c-1.1-0.4-2.5-0.6-4.3-0.6h-9.8c-0.3,0-0.6,0-0.8,0c-0.3,0-0.6,0.2-0.8,0.5c-0.3,0.3-0.4,0.6-0.5,0.9
			c0,0.3,0,0.6,0,0.9v34.1h-9.7V-63.6z"/>
	</g>
	<g id="g170677" transform="translate(542.7871,198.5889)">
		<path id="path170679" inkscape:connector-curvature="0" class="st0" d="M-118.1-43.8c0.9,0,1.5-0.3,1.8-0.8
			c0.2-0.5,0.4-1.1,0.4-1.7c0-1.4-0.3-2.5-0.9-3.5c-0.6-1-1.2-1.7-1.9-2.3c-1.2-0.9-2.6-1.5-4-1.7c-1.5-0.2-2.9-0.3-4.3-0.3
			c-0.7,0-1.4,0-2.2,0c-0.8,0-1.6,0.1-2.4,0.3c-0.8,0.2-1.6,0.4-2.4,0.9c-0.8,0.4-1.5,1-2.2,1.7c-1,1.1-1.6,2.2-1.7,3.5
			c-0.1,1.2-0.2,2.5-0.3,3.9H-118.1z M-131.6-17.7c-1.1,0-2.3,0-3.5-0.1c-1.2-0.1-2.4-0.3-3.6-0.7c-1.2-0.4-2.3-1-3.4-1.7
			c-1.1-0.7-2.1-1.7-3-3c-1.4-2.1-2.3-4.5-2.6-7.3c-0.3-2.8-0.5-5.7-0.5-8.6c0-2,0-3.9,0.1-5.7c0.1-1.8,0.3-3.4,0.7-4.9
			c0.4-1.5,0.9-2.9,1.6-4.2c0.7-1.3,1.6-2.4,2.9-3.5c1.2-1,2.5-1.8,4-2.4c1.5-0.5,2.9-0.9,4.4-1.2c1.5-0.2,2.9-0.4,4.3-0.5
			c1.4-0.1,2.6-0.1,3.6-0.1c2.6,0,5.1,0.2,7.6,0.5c2.5,0.3,4.8,1.1,6.8,2.3c1.3,0.8,2.3,1.8,3.1,2.8c0.8,1,1.4,2.2,1.9,3.4
			c0.5,1.2,0.8,2.5,1,3.9c0.2,1.3,0.3,2.7,0.3,4.1c0,1.1-0.1,2.2-0.3,3.4c-0.2,1.2-0.8,2.2-1.7,3.2c-0.7,0.7-1.4,1.1-2.2,1.3
			c-0.8,0.2-1.6,0.3-2.5,0.3h-25.5c0,0.9,0.1,2,0.2,3.2c0.1,1.2,0.3,2.2,0.4,2.8c0.3,1.2,0.8,2.1,1.4,2.8c0.6,0.7,1.3,1.2,2.2,1.6
			c0.8,0.4,1.7,0.6,2.6,0.7c0.9,0.1,1.8,0.2,2.7,0.2h21.4v7.4C-107.3-17.7-131.6-17.7-131.6-17.7z"/>
	</g>
	<g id="g170681" transform="translate(557.6797,199.5176)">
		<path id="path170683" inkscape:connector-curvature="0" class="st0" d="M-114.4-45.9c0-2.4,0.3-4.8,0.9-7c0.6-2.2,1.8-4.1,3.7-5.7
			c1-0.9,2.1-1.6,3.3-2.1c1.2-0.5,2.4-0.9,3.6-1.2c1.2-0.2,2.3-0.4,3.4-0.5c1.1-0.1,2.1-0.1,2.9-0.1h6.5v7.4h-4.1
			c-1.3,0-2.7,0.2-4.2,0.5c-1.5,0.3-2.9,1.2-4.1,2.6c-0.9,1.1-1.5,2.4-1.8,3.9c-0.3,1.5-0.4,3.1-0.4,4.7v24.7h-9.7V-45.9z"/>
	</g>
	<g id="g170685" transform="translate(604.5928,204.0146)">
		<path id="path170687" inkscape:connector-curvature="0" class="st0" d="M-102.6-56c0-0.6-0.1-1.1-0.2-1.6c-0.1-0.4-0.5-0.9-1-1.2
			c-0.4-0.3-0.9-0.5-1.3-0.5c-0.4-0.1-0.8-0.1-1.3-0.1h-8.3c-1.6,0-3.1,0.2-4.4,0.7c-1.3,0.5-2.4,1.1-3.1,2
			c-0.7,0.8-1.2,1.7-1.5,2.9c-0.4,1.1-0.6,2.3-0.8,3.4c-0.2,1.2-0.3,2.2-0.3,3.3c0,1,0,1.8,0,2.3c0,2,0.1,3.7,0.2,5
			c0.2,1.4,0.4,2.5,0.6,3.4c0.2,0.9,0.5,1.6,0.8,2.2c0.3,0.6,0.6,1,0.8,1.2c1.1,1.3,2.4,2,3.9,2.2c1.5,0.2,3,0.3,4.4,0.3l11.5,0V-56
			z M-118.3-23.1c-1.2,0-2.3-0.1-3.5-0.2c-1.2-0.1-2.4-0.3-3.5-0.7c-1.2-0.4-2.3-0.9-3.4-1.7c-1.1-0.7-2-1.8-2.9-3.1
			c-2.3-3.5-3.4-9.2-3.4-17c0-3.5,0.3-6.6,0.9-9.3c0.6-2.7,1.8-5.1,3.8-7.2c1-1.2,2.1-2.1,3.2-2.7c1.1-0.6,2.2-1.1,3.4-1.4
			c1.2-0.3,2.3-0.5,3.5-0.6c1.2-0.1,2.3-0.1,3.4-0.1h14.1c1.3,0,2.5,0.1,3.7,0.3c1.2,0.2,2.3,0.7,3.4,1.5c1.1,0.9,1.8,2,2.1,3.2
			c0.3,1.2,0.5,2.2,0.5,3.2v30.8c0,2.8-0.2,5.4-0.7,7.9c-0.5,2.4-1.4,4.5-2.9,6.3c-1,1.2-2.2,2.2-3.6,2.9c-1.4,0.7-2.8,1.2-4.1,1.6
			c-1.4,0.4-2.7,0.6-3.9,0.7c-1.2,0.1-2.2,0.2-3,0.2h-20.7v-7.4h18.4c1.1,0,2.4-0.1,4-0.3c1.6-0.2,3-0.8,4.1-1.7
			c1.4-1.3,2.3-2.9,2.6-5C-102.7-23.1-118.3-23.1-118.3-23.1z"/>
	</g>
	<path id="path170689" inkscape:connector-curvature="0" class="st0" d="M520.3,137.1h9.7v43.8h-9.7V137.1z M520.3,123h9.7v7.7h-9.7
		V123z"/>
	<g id="g170691" transform="translate(638.1504,213.1182)">
		<path id="path170693" inkscape:connector-curvature="0" class="st0" d="M-94.2-76.5v-8.6c0-0.2,0-0.3,0-0.5c0-0.2,0.1-0.3,0.2-0.5
			c0.1-0.1,0.3-0.2,0.5-0.3c0.2-0.1,0.5-0.1,0.9-0.1h4.1c0.4,0,0.7,0,1,0c0.3,0,0.6,0.2,0.9,0.4c0.4,0.3,0.7,0.7,0.8,1.3
			c0.1,0.6,0.2,1.1,0.2,1.5c0,0.7-0.1,1.3-0.2,1.7c-0.2,0.4-0.3,0.7-0.6,0.9c-0.2,0.2-0.5,0.3-0.7,0.4c-0.3,0.1-0.5,0.1-0.7,0.1h-1
			l3.8,3.8h-2.2l-3.4-3.4c-0.1-0.1-0.3-0.3-0.3-0.4C-91-80.4-91-80.6-91-81c0-0.4,0.1-0.6,0.3-0.7c0.2-0.1,0.4-0.1,0.6-0.1h1.4
			c0.1,0,0.3,0,0.6,0c0.3,0,0.5-0.1,0.6-0.1c0.2-0.2,0.3-0.4,0.3-0.7V-84c0-0.3-0.1-0.5-0.3-0.7c-0.1-0.2-0.3-0.3-0.5-0.4
			c-0.2,0-0.4-0.1-0.5-0.1h-3.4c-0.1,0-0.2,0-0.3,0c-0.1,0-0.2,0-0.3,0.1c-0.1,0.1-0.1,0.2-0.1,0.3c0,0.2,0,0.3,0,0.3v7.9H-94.2z
			 M-89-73.9c0.5,0,1-0.1,1.5-0.2c0.5-0.1,1-0.2,1.5-0.4c0.5-0.2,0.9-0.4,1.3-0.7c0.4-0.4,0.8-0.8,1.1-1.3c0.3-0.5,0.5-1,0.6-1.6
			c0.2-0.6,0.2-1.1,0.3-1.7c0-0.6,0.1-1.1,0.1-1.6c0-0.4,0-0.8,0-1.3c0-0.5-0.1-1-0.2-1.5c-0.1-0.5-0.2-1-0.4-1.5
			c-0.2-0.5-0.4-0.9-0.7-1.3c-0.4-0.5-0.8-0.9-1.2-1.2c-0.4-0.3-0.9-0.5-1.4-0.6c-0.5-0.1-1-0.2-1.5-0.3c-0.5,0-1,0-1.5,0
			c-0.4,0-0.8,0-1.3,0c-0.5,0-1,0.1-1.5,0.2c-0.5,0.1-1,0.2-1.5,0.5c-0.5,0.2-1,0.5-1.4,0.9c-0.4,0.4-0.7,0.9-1,1.4
			c-0.2,0.5-0.4,1-0.5,1.5c-0.1,0.5-0.2,1-0.2,1.5c0,0.5,0,1,0,1.4c0,0.9,0,1.7,0.1,2.7c0.1,0.9,0.4,1.8,0.8,2.5
			c0.4,0.6,0.8,1,1.2,1.4c0.5,0.3,0.9,0.6,1.4,0.7c0.5,0.2,1,0.3,1.6,0.3c0.5,0.1,1,0.1,1.5,0.1C-89.9-73.9-89.5-73.9-89-73.9
			 M-92-72.5c-0.6,0-1.2-0.1-1.8-0.3c-0.6-0.2-1.1-0.4-1.7-0.7c-0.5-0.3-1-0.7-1.5-1.3c-0.4-0.5-0.7-1-1-1.6
			c-0.2-0.6-0.4-1.1-0.5-1.7c-0.1-0.6-0.2-1.2-0.2-1.7c0-0.6,0-1.1,0-1.6c0-0.5,0-1,0-1.6c0-0.6,0.1-1.2,0.2-1.8
			c0.1-0.6,0.3-1.2,0.6-1.8c0.3-0.6,0.6-1.1,1.1-1.6c0.5-0.5,1-0.9,1.6-1.2c0.6-0.3,1.1-0.5,1.7-0.6c0.6-0.1,1.2-0.2,1.8-0.2
			c0.6,0,1.2,0,1.8,0c0.5,0,1,0,1.6,0s1.1,0.1,1.6,0.2c0.5,0.1,1.1,0.2,1.6,0.5c0.5,0.2,1,0.5,1.5,0.9c0.6,0.5,1,1,1.3,1.6
			c0.3,0.6,0.6,1.2,0.7,1.8c0.2,0.6,0.3,1.3,0.3,1.9c0.1,0.7,0.1,1.3,0.1,1.9c0,0.6,0,1.2-0.1,1.9c-0.1,0.7-0.2,1.3-0.3,1.9
			c-0.2,0.6-0.4,1.3-0.7,1.8c-0.3,0.6-0.7,1.1-1.2,1.5c-0.5,0.4-1.1,0.8-1.7,1c-0.6,0.2-1.3,0.4-1.9,0.5c-0.6,0.1-1.3,0.2-1.9,0.2
			c-0.6,0-1.1,0-1.5,0C-90.8-72.5-91.4-72.5-92-72.5"/>
	</g>
	<g id="g170695" transform="translate(629.5371,340.3027)">
		<path id="path170697" inkscape:connector-curvature="0" class="st1" d="M-280.7-280.1c-6.2,20.2-32.6,23-50.1,6.1
			c-0.2-0.1-0.3-0.2-0.4-0.3l-14.1-13c-2.6-2.2-29.2-27.4-34.8-32.1c-5-4.1-27.6-20.9-51.3-2.9c-9.8,7.4-16.4,18.5-16.9,34.4
			c0,0,0-0.1,0-0.1c1.6-20.6,18.2-25.4,25.5-25.4c13.3,0,25.5,10.7,25.5,10.7c0.9,0.7,1.6,1.4,2.2,1.9l12.6,11.5
			c2.6,2.2,29.2,27.5,34.8,32.1c4.7,3.8,27.3,20.5,51.3,2.9c7.4-5.4,14-15.9,15.8-25.9C-280.6-280.2-280.6-280.1-280.7-280.1"/>
	</g>
	<g id="g170699" transform="translate(408.4912,312.4287)">
		<path id="path170701" inkscape:connector-curvature="0" class="st0" d="M-146-241.3l-16.4-15.6c-0.4-0.5-0.7-0.4-1.1,0
			c-4.7,4.3-7.7,7.1-13,11.4c-11.8,9.5-36.1,17.2-43.9-0.5c4.6,12.4,16.1,26.3,35.2,27.5c0.2,0,0.3,0,0.4,0
			c6.7-0.1,13.9-2.1,20.9-6.6c6.1-3.9,9.5-7.3,17.8-15.2C-145.6-240.7-145.6-240.9-146-241.3"/>
	</g>
	<g id="g170703" transform="translate(501.0781,324.8652)">
		<path id="path170705" inkscape:connector-curvature="0" class="st2" d="M-202.4-258.6c17.5,17.1,44,14.2,50.2-6
			c0.8-2.5-3-4.5-4.7-0.6C-160.7-255.3-178.5-239.8-202.4-258.6"/>
	</g>
	<g id="g170707" transform="translate(617.5498,380.2031)">
		<path id="path170709" inkscape:connector-curvature="0" class="st0" d="M-273.4-335.5c-2.2-23.3-17.3-33.6-30-34.4
			c0.7,0-1.2-0.2-0.5-0.1c-7.9-0.7-16.7,1.4-25.8,7.3c-5.7,3.8-9.9,7.4-18.2,15.1c-0.4,0.3-0.7,0.6-0.2,1.1l16.5,15.5
			c0.4,0.4,0.6,0.4,1,0c4.7-4.3,7.7-7.1,13-11.4c12.8-10.3,38.3-18.7,44.2,7.2C-273.3-335.3-273.4-335.4-273.4-335.5"/>
	</g>
	<g id="g170711" transform="translate(629.8447,380.3369)">
		<path id="path170713" inkscape:connector-curvature="0" class="st3" d="M-280.9-335.7c0.2,3.3-4.5,3.9-4.8,0.1
			c-2.2-23.3-19.8-33.8-32.5-34.6C-303.4-370-283.5-359.4-280.9-335.7"/>
	</g>
	<g id="g170715" transform="translate(212.3042,360.2422)">
		<path id="path170717" inkscape:connector-curvature="0" class="st2" d="M-26.4-307.8L-26.4-307.8c0.4-4,1.6-7.8,3.8-11.2
			c11.7-17.8,33.4-10.6,40.1-5.7c-5.6-4-14.1-8.7-23-8.7c-7.4,0-24,4.9-25.6,25.5h0c-0.2,3.3,0.2,7,1.3,10.7
			c6.4,22,26.4,31.4,41.1,30.8C-16.1-267.8-27.9-295.6-26.4-307.8"/>
	</g>
</g>
</svg>
